<svg width="80" height="24" viewBox="0 0 80 24" fill="none" xmlns="http://www.w3.org/2000/svg">
<path d="M26.6298 9.66044C26.2272 11.5883 25.2633 13.2619 23.738 14.6813C22.1491 16.1855 20.3907 16.9375 18.4629 16.9375H6.99111L5.49755 23.9286H0L5.08444 0H22.0538C23.6638 0 24.9561 0.561407 25.9306 1.68422C26.8416 2.76467 27.2971 4.09933 27.2971 5.68822C27.2971 6.23903 27.2335 6.81103 27.1064 7.40422L26.6298 9.66044ZM21.1322 9.72399L21.6089 7.40422C21.6936 7.04407 21.6512 6.74748 21.4818 6.51444C21.3123 6.26022 21.0687 6.13311 20.7509 6.13311H9.2791L8.26222 10.9633H19.734C20.0518 10.9633 20.3378 10.8468 20.592 10.6138C20.8674 10.3595 21.0475 10.063 21.1322 9.72399Z" fill="url(#paint0_linear_57_1093)"/>
<path d="M52.3295 9.66044C51.927 11.5247 51.0054 13.156 49.5649 14.5542C48.0395 16.0372 46.3447 16.8316 44.4804 16.9375L49.2789 23.8969H41.4933L36.7584 16.9375H31.5151L30.0215 23.9286H24.524L29.6084 0H48.1031C49.6284 0 50.8466 0.540222 51.7575 1.62067C52.5837 2.63755 52.9969 3.92985 52.9969 5.49755C52.9969 6.11192 52.9333 6.74748 52.8062 7.40422L52.3295 9.66044ZM46.8002 9.72399L47.3086 7.40422C47.3722 7.04407 47.3192 6.74748 47.1497 6.51444C46.9803 6.26022 46.7472 6.13311 46.4506 6.13311H33.8031L32.7862 10.9633H45.402C45.7198 10.9633 46.0057 10.8468 46.26 10.6138C46.5354 10.3595 46.7155 10.063 46.8002 9.72399Z" fill="url(#paint1_linear_57_1093)"/>
<path d="M77.8709 16.5244C77.4472 18.5582 76.4303 20.2954 74.8202 21.736C73.2313 23.1766 71.5153 23.8969 69.6722 23.8969H57.0565C55.5099 23.8969 54.2494 23.3672 53.2749 22.308C52.3004 21.2275 51.8131 19.8717 51.8131 18.2404C51.8131 17.6896 51.8767 17.1176 52.0038 16.5244L53.9422 7.40422C54.3871 5.37044 55.404 3.63326 56.9929 2.19267C58.603 0.752073 60.319 0.0317773 62.1409 0.0317773H74.7567C76.3032 0.0317773 77.5637 0.571999 78.5382 1.65244C79.5127 2.7117 80 4.05696 80 5.68822C80 6.23903 79.9364 6.81103 79.8093 7.40422L77.8709 16.5244ZM72.3733 16.5244L74.3118 7.40422C74.3753 7.04407 74.3224 6.74748 74.1529 6.51444C74.0046 6.26022 73.7716 6.13311 73.4538 6.13311H60.838C60.5202 6.13311 60.2236 6.26022 59.9482 6.51444C59.694 6.74748 59.5245 7.04407 59.4398 7.40422L57.5014 16.5244C57.4378 16.8846 57.4908 17.1918 57.6602 17.446C57.8297 17.679 58.0628 17.7955 58.3593 17.7955H70.9751C71.2929 17.7955 71.5789 17.679 71.8331 17.446C72.1085 17.1918 72.2886 16.8846 72.3733 16.5244Z" fill="url(#paint2_linear_57_1093)"/>
<defs>
<linearGradient id="paint0_linear_57_1093" x1="6.54415" y1="0.910946" x2="35.8667" y2="49.1916" gradientUnits="userSpaceOnUse">
<stop stop-color="#6F90FB"/>
<stop offset="1" stop-color="#415AE8"/>
</linearGradient>
<linearGradient id="paint1_linear_57_1093" x1="6.54415" y1="0.910946" x2="35.8667" y2="49.1916" gradientUnits="userSpaceOnUse">
<stop stop-color="#6F90FB"/>
<stop offset="1" stop-color="#415AE8"/>
</linearGradient>
<linearGradient id="paint2_linear_57_1093" x1="6.54415" y1="0.910946" x2="35.8667" y2="49.1916" gradientUnits="userSpaceOnUse">
<stop stop-color="#6F90FB"/>
<stop offset="1" stop-color="#415AE8"/>
</linearGradient>
</defs>
</svg>
