<svg width="400" height="115" viewBox="0 0 400 115" fill="none" xmlns="http://www.w3.org/2000/svg">
<path d="M148.976 57.7665C148.976 38.3865 162.872 23.6705 181.978 23.6705C198.888 23.6705 210.316 33.9999 214.339 47.6199H202.638C200.168 39.2092 192.947 32.7198 181.703 32.7198C168.723 32.7198 159.399 42.4999 159.399 57.9492C159.399 72.4839 168.264 83.4532 182.891 83.4532C195.05 83.4532 202.727 75.9585 204.556 64.7132H181.886V56.6692H215.16C215.527 77.6945 202.638 92.0479 182.526 92.0479C163.603 92.0479 148.976 77.6945 148.976 57.7665Z" fill="white"/>
<path d="M232.361 90.6759H223.129V42.2266H231.721V52.4639C235.105 45.7919 242.417 41.5866 250.371 41.5866V51.1853C239.949 50.6359 232.361 55.2079 232.361 65.9026V90.6759Z" fill="white"/>
<path d="M257.951 42.2267H267.183V90.676H257.951V42.2267ZM262.521 37.108C258.591 37.108 255.757 34.456 255.757 30.9827C255.757 27.4174 258.591 24.8574 262.521 24.8574C266.452 24.8574 269.195 27.4174 269.195 30.9827C269.195 34.456 266.452 37.108 262.521 37.108Z" fill="white"/>
<path d="M284.926 90.6759H275.694V42.2266H284.286V50.2706C287.578 44.8773 293.062 41.3119 299.735 41.3119C309.699 41.3119 316.282 47.7106 316.282 59.3212V90.6759H307.047V62.4292C307.047 54.1092 303.392 49.4479 296.535 49.4479C290.228 49.4479 284.926 54.7492 284.926 63.3439V90.6759Z" fill="white"/>
<path d="M354.219 89.8526C351.386 91.1326 348.916 91.5899 345.992 91.5899C337.034 91.5899 330.816 86.7459 330.816 76.0499V50.0872H320.123V42.2272H330.816V27.8739H340.051V42.2272H354.678V50.0872H340.051V73.9472C340.051 80.6205 343.25 82.9966 348.187 82.9966C350.38 82.9966 352.3 82.6312 354.219 81.7166V89.8526Z" fill="white"/>
<path d="M378.304 85.0087C386.075 85.0087 390.92 80.1633 390.92 72.7593V68.8274C387.355 68.3714 384.795 68.2794 382.417 68.2794C373.185 68.2794 368.615 71.022 368.615 76.69C368.615 81.7167 372.361 85.0087 378.304 85.0087ZM392.017 83.1807C389 88.574 383.607 91.59 376.476 91.59C366.421 91.59 359.839 85.83 359.839 76.9634C359.839 67.4567 367.427 62.5207 381.869 62.5207C384.703 62.5207 386.989 62.6114 390.92 63.0687V59.5034C390.92 52.5567 387.172 48.626 380.772 48.626C374.008 48.626 369.895 52.6474 369.62 59.4114H361.211C361.668 48.534 369.439 41.3113 380.772 41.3113C392.748 41.3113 399.696 48.0767 399.696 59.5954V90.6754H392.017V83.1807Z" fill="white"/>
<path d="M114.787 55.7846V59.8792C114.594 80.4646 101.578 100.974 81.0301 109.819C73.3061 113.102 65.4647 114.686 57.8181 114.841C50.1314 114.686 42.2914 113.102 34.5274 109.819C13.3621 100.705 0.191396 79.1126 0.847396 57.8699C0.191396 36.5499 13.3621 14.9593 34.5274 5.88327C42.2914 2.59927 50.1314 1.01657 57.8181 0.861908C65.4647 1.01657 73.3061 2.59927 81.0301 5.88327C94.8968 11.8313 105.325 23.1086 110.693 36.1246C111.273 37.4766 111.775 38.8672 112.199 40.2579H105.402C104.475 38.7899 103.47 37.4379 102.311 36.1246C92.2314 24.4993 74.6567 18.3193 57.8181 18.6286C32.4421 18.1646 5.36607 32.3792 4.82607 57.8699C5.36607 83.3232 32.4421 97.5366 57.8181 97.0352C82.4594 97.4979 108.801 84.0952 110.654 59.8792H86.8234L84.1981 60.7673C73.1127 64.4366 64.4221 73.1259 60.7528 84.2112L59.2074 88.8846H56.4274L54.8821 84.2112C51.1741 73.1259 42.4834 64.4366 31.4381 60.7673L26.9954 59.2992V56.3646L31.4381 54.8966C42.4834 51.2272 51.1741 42.5366 54.8821 31.4513L56.3501 27.0099H59.2847L60.7528 31.4513C64.4221 42.5366 73.1127 51.2272 84.1981 54.8966L86.8234 55.7846H114.787Z" fill="white"/>
</svg>
