<svg fill="none" height="10" viewBox="0 0 84 10" width="84" xmlns="http://www.w3.org/2000/svg" xmlns:xlink="http://www.w3.org/1999/xlink"><linearGradient id="a" gradientUnits="userSpaceOnUse" x1="0" x2="4.72327" y1="-2" y2="24.7971"><stop offset="0" stop-color="#6f90fb"/><stop offset="1" stop-color="#415ae8"/></linearGradient><path d="m9.672 9.192h-1.98l.084-.36c-.304.232-.616.348-.936.348h-3.984c-.584 0-1.06-.2-1.428-.6-.36-.408-.54-.92-.54-1.536 0-.208.02-.424.06-.648l.732-3.444c.168-.768.552-1.424 1.152-1.968001.608-.544 1.256-.816 1.944-.816h4.464c.864 0 1.48.44 1.848 1.320001l-2.064 1.512c-.008-.352-.1-.528-.276-.528h-4.464c-.112 0-.22.048-.324.144-.104.088-.168.2-.192.336l-.744 3.444c-.024.136-.004.252.06.348.064.088.152.132.264.132h3.78c.264 0 .528-.12.792-.36.272-.248.444-.516.516-.804-.24.04-.476.06-.708.06h-1.86l.48-2.268h4.536zm11.0833-5.388c-.152.704-.5 1.32-1.044 1.848-.576.56-1.216.86-1.92.9l1.812 2.628h-2.94l-1.788-2.628h-1.98l-.564 2.64h-2.076l1.92-9.036001h6.984c.576 0 1.036.204 1.38.612.312.384001.468.872001.468 1.464001 0 .232-.024.472-.072.72zm-2.088.024.192-.876c.024-.136.004-.248-.06-.336-.064-.096-.152-.144-.264-.144h-4.776l-.384 1.824h4.764c.12 0 .228-.044.324-.132.104-.096.172-.208.204-.336zm3.525 5.364h-2.076l1.92-9.036001h2.076zm9.8841 0h-2.436l-3.048-5.172c-.136-.224-.26-.472-.372-.744l-1.26 5.916h-2.076l1.92-9.036001h2.196l3.288 5.340001c.128.208.244.436.348.684l1.284-6.024001h2.076zm9.701-6.732h-2.868l-1.428 6.732h-2.076l1.428-6.732h-2.832l.492-2.304001h7.776zm7.6643 6.72h-2.4l-.456-1.944h-4.32l-1.272 1.944h-2.4l6.168-9.012001h2.328zm-3.456-4.26c-.288-1.08-.468-1.904-.54-2.472-.296.544-.828 1.368-1.596 2.472zm17.037-1.116c-.152.728-.516 1.36-1.092 1.896-.6.568-1.264.852-1.992.852h-4.332l-.564 2.64h-2.076l1.92-9.036001h6.408c.608 0 1.096.212001 1.464.636001.344.408.516.912.516 1.512 0 .208-.024.424-.072.648zm-2.076.024.18-.876c.032-.136.016-.248-.048-.336-.064-.096-.156-.144-.276-.144h-4.332l-.384 1.824h4.332c.12 0 .228-.044.324-.132.104-.096.172-.208.204-.336zm11.7808-.024c-.152.704-.5 1.32-1.044 1.848-.576.56-1.216.86-1.92.9l1.812 2.628h-2.94l-1.788-2.628h-1.98l-.564 2.64h-2.076l1.92-9.036001h6.984c.576 0 1.036.204 1.38.612.312.384001.468.872001.468 1.464001 0 .232-.024.472-.072.72zm-2.088.024.192-.876c.024-.136.004-.248-.06-.336-.064-.096-.152-.144-.264-.144h-4.776l-.384 1.824h4.764c.12 0 .228-.044.324-.132.104-.096.172-.208.204-.336zm11.733 2.568c-.16.768-.544 1.424-1.152 1.968-.6.544-1.248.816-1.944.816h-4.764c-.584 0-1.06-.2-1.428-.6-.368-.408-.552-.92-.552-1.536 0-.208.024-.424.072-.648l.732-3.444c.168-.768.552-1.424 1.152-1.968001.608-.544 1.256-.816 1.944-.816h4.764c.584 0 1.06.204 1.428.612.368.400001.552.908001.552 1.524001 0 .208-.024.424-.072.648zm-2.076 0 .732-3.444c.024-.136.004-.248-.06-.336-.056-.096-.144-.144-.264-.144h-4.764c-.12 0-.232.048-.336.144-.096.088-.16.2-.192.336l-.732 3.444c-.024.136-.004.252.06.348.064.088.152.132.264.132h4.764c.12 0 .228-.044.324-.132.104-.096.172-.212.204-.348z" fill="url(#a)"/></svg>