<svg width="469" height="224" viewBox="0 0 469 224" fill="none" xmlns="http://www.w3.org/2000/svg">
<path d="M0.43708 105.779L200.189 204.4C254.224 230.975 362.088 249.961 361.261 113.308C361.261 64.7656 345.021 6.56724 336.901 -16.4641M0.43708 91.0154L200.189 189.637C254.224 216.211 372.777 232.304 372.777 111.98C372.777 63.4369 361.113 6.27197 352.993 -16.7593M3.24218 72.2655L202.699 168.82C256.734 195.394 377.501 233.337 383.702 94.2634C385.864 45.7686 377.058 6.56724 368.938 -16.4641M5.45672 52.187L183.211 144.46C237.246 171.034 390.031 206.762 394.922 97.0685C397.084 48.5737 391.822 6.56724 383.702 -16.4641M7.376 34.3229L185.13 126.596C239.165 153.17 398.908 198.642 406.438 79.4997C409.499 31.0535 404.076 5.9767 398.908 -15.5782M11.6575 17.1971L191.479 111.98C245.514 138.554 403.71 168.229 415.591 80.0903C421.94 32.9942 417.363 6.56724 413.524 -15.5782M17.7106 1.99051L197.532 96.7732C251.567 123.348 407.914 160.847 426.812 63.1121C433.46 28.7254 431.093 6.56724 427.993 -15.8735M31.5884 -9.52515L208.605 83.043C262.642 106.896 416.497 142.008 435.396 54.2836C442.045 23.4191 442.166 2.72869 440.542 -16.3164M46.795 -14.3972L223.377 73.1865C277.417 94.673 427.696 123.237 446.595 44.2146C453.244 16.4119 455.325 0.366506 455.325 -16.3164M71.0074 -16.7593L239.321 66.2483C293.362 86.0691 420.704 105.485 455.601 38.752C464.016 22.6596 469.331 1.42878 467.707 -14.3972" stroke="url(#paint0_linear_3_864)" stroke-width="0.590546"/>
<defs>
<linearGradient id="paint0_linear_3_864" x1="174.648" y1="-8.19642" x2="341.035" y2="136.635" gradientUnits="userSpaceOnUse">
<stop stop-color="#6B9DF0"/>
<stop offset="0.373261" stop-color="#6F92CC"/>
<stop offset="1" stop-color="#303B5B"/>
</linearGradient>
</defs>
</svg>
