<?xml version="1.0" encoding="UTF-8"?>
<svg id="Warstwa_2" data-name="Warstwa 2" xmlns="http://www.w3.org/2000/svg" viewBox="0 0 616.61 616.7">
  <defs>
    <style>
      .cls-1 {
        stroke-width: 0px;
      }
    </style>
  </defs>
  <g id="Warstwa_1-2" data-name="Warstwa 1">
    <path class="cls-1" d="m616.61,297.17v22.15c-1.05,111.38-71.47,222.35-182.65,270.21-41.79,17.76-84.22,26.33-125.59,27.17-41.59-.84-84.01-9.41-126.02-27.17C67.84,540.21-3.42,423.38.13,308.45-3.42,193.09,67.84,76.28,182.36,27.17,224.36,9.4,266.78.84,308.37,0c41.37.84,83.8,9.4,125.59,27.17,75.03,32.18,131.45,93.2,160.49,163.62,3.14,7.32,5.86,14.84,8.15,22.36h-36.78c-5.01-7.94-10.45-15.26-16.72-22.36-54.54-62.9-149.63-96.34-240.74-94.66C171.07,93.62,24.58,170.53,21.65,308.45c2.92,137.72,149.42,214.62,286.72,211.91,133.33,2.5,275.85-70.01,285.88-201.04h-128.94l-14.2,4.8c-59.98,19.85-107,66.87-126.85,126.85l-8.36,25.29h-15.04l-8.36-25.29c-20.06-59.98-67.08-106.99-126.85-126.85l-24.04-7.94v-15.88l24.04-7.94c59.76-19.85,106.78-66.88,126.85-126.85l7.94-24.03h15.88l7.94,24.03c19.85,59.98,66.88,107,126.85,126.85l14.2,4.8h151.3Z"/>
  </g>
</svg>