<svg xmlns="http://www.w3.org/2000/svg" width="4096" height="3072" fill="none"><g clip-path="url(#a)"><path fill="#0F0F11" d="M0 0h4096v3072H0z"/><g filter="url(#b)"><circle cx="2046.22" cy="193.075" r="420.675" fill="#3C459A" fill-opacity=".5" transform="rotate(-90 2046.22 193.075)"/></g><mask id="d" width="3408" height="2035" x="344" y="-824" maskUnits="userSpaceOnUse" style="mask-type:alpha"><path fill="url(#c)" d="M344-824h3408v2034.15H344z"/></mask><g stroke="#fff" stroke-width="3.55" mask="url(#d)"><path d="M782.425-229.375h280.45v280.45h-280.45z"/><path d="M1062.87-229.375h280.45v280.45h-280.45zM1343.32-229.375h280.45v280.45h-280.45zM1623.77-229.375h280.45v280.45h-280.45z"/><path fill="#fff" fill-opacity=".25" d="M1904.22-229.375h280.45v280.45h-280.45z"/><path d="M2184.68-229.375h280.45v280.45h-280.45z"/><path fill="#fff" fill-opacity=".25" d="M2465.12-229.375h280.45v280.45h-280.45z"/><path d="M2745.57-229.375h280.45v280.45h-280.45zM3026.03-229.375h280.45v280.45h-280.45zM782.425 51.075h280.45v280.45h-280.45z"/><path d="M1062.87 51.075h280.45v280.45h-280.45zM1343.32 51.075h280.45v280.45h-280.45zM1623.77 51.075h280.45v280.45h-280.45zM1904.22 51.075h280.45v280.45h-280.45zM2184.68 51.075h280.45v280.45h-280.45z"/><path d="M2465.12 51.075h280.45v280.45h-280.45zM2745.57 51.075h280.45v280.45h-280.45zM3026.03 51.075h280.45v280.45h-280.45zM782.425 331.525h280.45v280.45h-280.45z"/><path d="M1062.87 331.525h280.45v280.45h-280.45zM1343.32 331.525h280.45v280.45h-280.45z"/><path fill="#fff" fill-opacity=".25" d="M1623.77 331.525h280.45v280.45h-280.45z"/><path d="M1904.22 331.525h280.45v280.45h-280.45zM2184.68 331.525h280.45v280.45h-280.45z"/><path d="M2465.12 331.525h280.45v280.45h-280.45zM2745.57 331.525h280.45v280.45h-280.45zM3026.03 331.525h280.45v280.45h-280.45zM782.425 611.975h280.45v280.45h-280.45z"/><path d="M1062.87 611.975h280.45v280.45h-280.45zM1343.32 611.975h280.45v280.45h-280.45zM1623.77 611.975h280.45v280.45h-280.45zM1904.22 611.975h280.45v280.45h-280.45zM2184.68 611.975h280.45v280.45h-280.45z"/><path d="M2465.12 611.975h280.45v280.45h-280.45zM2745.57 611.975h280.45v280.45h-280.45zM3026.03 611.975h280.45v280.45h-280.45zM782.425 892.425h280.45v280.45h-280.45z"/><path d="M1062.87 892.425h280.45v280.45h-280.45zM1343.32 892.425h280.45v280.45h-280.45zM1623.77 892.425h280.45v280.45h-280.45zM1904.22 892.425h280.45v280.45h-280.45zM2184.68 892.425h280.45v280.45h-280.45z"/><path d="M2465.12 892.425h280.45v280.45h-280.45zM2745.57 892.425h280.45v280.45h-280.45zM3026.03 892.425h280.45v280.45h-280.45z"/></g><g filter="url(#e)"><circle cx="2046.22" cy="3151.07" r="420.675" fill="#3C459A" fill-opacity=".5" transform="rotate(-90 2046.22 3151.07)"/></g><mask id="g" width="3408" height="2035" x="344" y="2134" maskUnits="userSpaceOnUse" style="mask-type:alpha"><path fill="url(#f)" d="M344 2134h3408v2034.15H344z"/></mask><g stroke="#fff" stroke-width="3.55" mask="url(#g)"><path d="M782.425 2167.72h280.45v280.45h-280.45z"/><path d="M1062.87 2167.72h280.45v280.45h-280.45zM1343.32 2167.72h280.45v280.45h-280.45zM1623.77 2167.72h280.45v280.45h-280.45zM1904.22 2167.72h280.45v280.45h-280.45zM2184.68 2167.72h280.45v280.45h-280.45z"/><path fill="#fff" fill-opacity=".25" d="M2465.12 2167.72h280.45v280.45h-280.45z"/><path d="M2745.57 2167.72h280.45v280.45h-280.45zM3026.03 2167.72h280.45v280.45h-280.45zM782.425 2448.17h280.45v280.45h-280.45z"/><path d="M1062.87 2448.17h280.45v280.45h-280.45zM1343.32 2448.17h280.45v280.45h-280.45zM1623.77 2448.17h280.45v280.45h-280.45zM1904.22 2448.17h280.45v280.45h-280.45zM2184.68 2448.17h280.45v280.45h-280.45z"/><path d="M2465.12 2448.17h280.45v280.45h-280.45zM2745.57 2448.17h280.45v280.45h-280.45zM3026.03 2448.17h280.45v280.45h-280.45zM782.425 2728.62h280.45v280.45h-280.45z"/><path d="M1062.87 2728.62h280.45v280.45h-280.45zM1343.32 2728.62h280.45v280.45h-280.45zM1623.77 2728.62h280.45v280.45h-280.45z"/><path fill="#fff" fill-opacity=".25" d="M1904.22 2728.62h280.45v280.45h-280.45z"/><path d="M2184.68 2728.62h280.45v280.45h-280.45z"/><path fill="#fff" fill-opacity=".25" d="M2465.12 2728.62h280.45v280.45h-280.45z"/><path d="M2745.57 2728.62h280.45v280.45h-280.45zM3026.03 2728.62h280.45v280.45h-280.45zM782.425 3009.07h280.45v280.45h-280.45z"/><path d="M1062.87 3009.07h280.45v280.45h-280.45zM1343.32 3009.07h280.45v280.45h-280.45zM1623.77 3009.07h280.45v280.45h-280.45zM1904.22 3009.07h280.45v280.45h-280.45zM2184.68 3009.07h280.45v280.45h-280.45z"/><path d="M2465.12 3009.07h280.45v280.45h-280.45zM2745.57 3009.07h280.45v280.45h-280.45zM3026.03 3009.07h280.45v280.45h-280.45z"/></g><g filter="url(#h)"><rect width="1009" height="1009" x="1539" y="1032" fill="url(#i)" rx="200"/><rect width="993" height="993" x="1547" y="1040" stroke="url(#j)" stroke-width="16" rx="192"/></g><rect width="856" height="856" x="1616" y="1109" fill="url(#k)" rx="127"/><g clip-path="url(#l)"><rect width="978" height="978" x="1554" y="1048" fill="#fff" rx="180"/><path fill="url(#m)" d="M2390.87 1048h-695.74c-77.95 0-141.13 63.18-141.13 141.13v695.74c0 77.95 63.18 141.13 141.13 141.13h695.74c77.95 0 141.13-63.18 141.13-141.13v-695.74c0-77.95-63.18-141.13-141.13-141.13Z"/><path fill="#fff" d="M2377.49 1524.86v24.02c-1.11 120.82-77.54 241.21-198.14 293.15-45.34 19.26-91.36 28.56-136.26 29.46-45.12-.9-91.14-10.2-136.73-29.46-124.24-53.49-201.53-180.26-197.71-304.94-3.86-125.15 73.47-251.88 197.71-305.15 45.59-19.26 91.61-28.57 136.73-29.47 44.9.9 90.92 10.21 136.26 29.47 81.4 34.91 142.6 101.09 174.12 177.51 3.39 7.94 6.35 16.09 8.84 24.28h-39.89c-5.45-8.62-11.32-16.56-18.14-24.28-59.18-68.23-162.33-104.52-261.15-102.71-148.96-2.74-307.9 80.71-311.07 230.35 3.17 149.42 162.11 232.84 311.07 229.88 144.62 2.71 299.27-75.95 310.13-218.09h-139.9l-15.4 5.23c-65.07 21.53-116.1 72.53-137.63 137.63l-9.09 27.45h-16.3l-9.09-27.45c-21.75-65.06-72.78-116.06-137.63-137.63l-26.07-8.62v-17.24l26.07-8.62c64.85-21.53 115.85-72.56 137.63-137.62l8.62-26.08h17.24l8.62 26.08a216.636 216.636 0 0 0 137.63 137.62l15.4 5.23h164.13Z"/></g><g filter="url(#n)"><circle cx="2472" cy="1194" r="162" fill="#A2C6D2" fill-opacity=".5"/></g><g filter="url(#o)"><ellipse cx="2333.5" cy="1048" fill="#86A8E6" fill-opacity=".4" rx="277.5" ry="162"/></g><g filter="url(#p)"><circle cx="2395" cy="1900" r="162" fill="#483CC9" fill-opacity=".6"/></g></g><defs><filter id="b" width="2261.35" height="2261.35" x="915.55" y="-937.6" color-interpolation-filters="sRGB" filterUnits="userSpaceOnUse"><feFlood flood-opacity="0" result="BackgroundImageFix"/><feBlend in="SourceGraphic" in2="BackgroundImageFix" result="shape"/><feGaussianBlur result="effect1_foregroundBlur_2_4" stdDeviation="355"/></filter><filter id="e" width="2261.35" height="2261.35" x="915.55" y="2020.4" color-interpolation-filters="sRGB" filterUnits="userSpaceOnUse"><feFlood flood-opacity="0" result="BackgroundImageFix"/><feBlend in="SourceGraphic" in2="BackgroundImageFix" result="shape"/><feGaussianBlur result="effect1_foregroundBlur_2_4" stdDeviation="355"/></filter><filter id="h" width="1209" height="1209" x="1439" y="982" color-interpolation-filters="sRGB" filterUnits="userSpaceOnUse"><feFlood flood-opacity="0" result="BackgroundImageFix"/><feColorMatrix in="SourceAlpha" result="hardAlpha" values="0 0 0 0 0 0 0 0 0 0 0 0 0 0 0 0 0 0 127 0"/><feOffset dy="50"/><feGaussianBlur stdDeviation="50"/><feComposite in2="hardAlpha" operator="out"/><feColorMatrix values="0 0 0 0 0 0 0 0 0 0 0 0 0 0 0 0 0 0 0.55 0"/><feBlend in2="BackgroundImageFix" result="effect1_dropShadow_2_4"/><feBlend in="SourceGraphic" in2="effect1_dropShadow_2_4" result="shape"/></filter><filter id="n" width="892" height="892" x="2026" y="748" color-interpolation-filters="sRGB" filterUnits="userSpaceOnUse"><feFlood flood-opacity="0" result="BackgroundImageFix"/><feBlend in="SourceGraphic" in2="BackgroundImageFix" result="shape"/><feGaussianBlur result="effect1_foregroundBlur_2_4" stdDeviation="142"/></filter><filter id="o" width="1203" height="972" x="1732" y="562" color-interpolation-filters="sRGB" filterUnits="userSpaceOnUse"><feFlood flood-opacity="0" result="BackgroundImageFix"/><feBlend in="SourceGraphic" in2="BackgroundImageFix" result="shape"/><feGaussianBlur result="effect1_foregroundBlur_2_4" stdDeviation="162"/></filter><filter id="p" width="732" height="732" x="2029" y="1534" color-interpolation-filters="sRGB" filterUnits="userSpaceOnUse"><feFlood flood-opacity="0" result="BackgroundImageFix"/><feBlend in="SourceGraphic" in2="BackgroundImageFix" result="shape"/><feGaussianBlur result="effect1_foregroundBlur_2_4" stdDeviation="102"/></filter><linearGradient id="i" x1="2416" x2="1832" y1="1032" y2="1537" gradientUnits="userSpaceOnUse"><stop stop-color="#79AEE7"/><stop offset=".332" stop-color="#4960A7"/><stop offset="1" stop-color="#101012"/></linearGradient><linearGradient id="j" x1="2427" x2="1718.5" y1="1078.5" y2="1775" gradientUnits="userSpaceOnUse"><stop stop-color="#EBF8FC"/><stop offset=".295" stop-color="#7FB8EF"/><stop offset=".576" stop-color="#5142F1"/><stop offset="1" stop-color="#1D1D29"/></linearGradient><linearGradient id="k" x1="2333" x2="1977" y1="1197" y2="1707" gradientUnits="userSpaceOnUse"><stop stop-color="#3B4F75"/><stop offset=".53" stop-color="#1B253E"/><stop offset="1" stop-color="#101012"/></linearGradient><linearGradient id="m" x1="1730.61" x2="2145.52" y1="1088.61" y2="1684.17" gradientUnits="userSpaceOnUse"><stop stop-color="#6F90FB"/><stop offset="1" stop-color="#415AE8"/></linearGradient><radialGradient id="c" cx="0" cy="0" r="1" gradientTransform="matrix(0 1253.82 -2100.65 0 2048 193.075)" gradientUnits="userSpaceOnUse"><stop stop-color="#D9D9D9" stop-opacity=".2"/><stop offset=".802" stop-color="#D9D9D9" stop-opacity="0"/></radialGradient><radialGradient id="f" cx="0" cy="0" r="1" gradientTransform="matrix(0 1253.82 -2100.65 0 2048 3151.08)" gradientUnits="userSpaceOnUse"><stop stop-color="#D9D9D9" stop-opacity=".2"/><stop offset=".802" stop-color="#D9D9D9" stop-opacity="0"/></radialGradient><clipPath id="a"><path fill="#fff" d="M0 0h4096v3072H0z"/></clipPath><clipPath id="l"><rect width="978" height="978" x="1554" y="1048" fill="#fff" rx="180"/></clipPath></defs></svg>